HIERARCHY
ROOT SpineBase
{
  OFFSET 0.000000 0.000000 0.000000
  CHANNELS 6 Xposition Yposition Zposition Zrotation Xrotation Yrotation
  JOINT SpineMid
  {
    OFFSET -0.000000 28.677988 0.000000
    CHANNELS 3 Zrotation Xrotation Yrotation
    JOINT SpineShoulder
    {
      OFFSET -0.029931 21.283139 -0.411688
      CHANNELS 3 Zrotation Xrotation Yrotation
      JOINT Neck
      {
        OFFSET -0.009239 6.990202 -0.411500
        CHANNELS 3 Zrotation Xrotation Yrotation
        JOINT Head
        {
          OFFSET -2.658339 12.922730 -1.682288
          CHANNELS 3 Zrotation Xrotation Yrotation
          End Site
          {
            OFFSET 0 0 0
          }
        }
      }
      JOINT ShoulderLeft
      {
        OFFSET -14.999377 -4.057103 7.501177
        CHANNELS 3 Zrotation Xrotation Yrotation
        JOINT ElbowLeft
        {
          OFFSET 1.160561 -17.340035 -11.875413
          CHANNELS 3 Zrotation Xrotation Yrotation
          JOINT WristLeft
          {
            OFFSET 6.788059 -16.360245 -10.634771
            CHANNELS 3 Zrotation Xrotation Yrotation
            JOINT HandLeft
            {
              OFFSET 5.357998 -17.669221 -3.976111
              CHANNELS 3 Zrotation Xrotation Yrotation
              JOINT HandTipLeft
              {
                OFFSET 2.693406 -5.522151 -1.181556
                CHANNELS 3 Zrotation Xrotation Yrotation
                End Site
                {
                  OFFSET 0 0 0
                }
              }
              JOINT ThumbLeft
              {
                OFFSET 4.192923 3.071918 -2.033156
                CHANNELS 3 Zrotation Xrotation Yrotation
                End Site
                {
                  OFFSET 0 0 0
                }
              }
            }
          }
        }
      }
      JOINT ShoulderRight
      {
        OFFSET 11.999284 -4.691691 -9.038638
        CHANNELS 3 Zrotation Xrotation Yrotation
        JOINT ElbowRight
        {
          OFFSET 7.510206 -18.560818 1.439204
          CHANNELS 3 Zrotation Xrotation Yrotation
          JOINT WristRight
          {
            OFFSET -15.751932 -9.046560 -9.949991
            CHANNELS 3 Zrotation Xrotation Yrotation
            JOINT HandRight
            {
              OFFSET -6.413825 -4.414589 -3.065276
              CHANNELS 3 Zrotation Xrotation Yrotation
              JOINT HandTipRight
              {
                OFFSET -5.277319 -4.420693 -1.276382
                CHANNELS 3 Zrotation Xrotation Yrotation
                End Site
                {
                  OFFSET 0 0 0
                }
              }
              JOINT ThumbRight
              {
                OFFSET -5.384405 1.151082 -1.472864
                CHANNELS 3 Zrotation Xrotation Yrotation
                End Site
                {
                  OFFSET 0 0 0
                }
              }
            }
          }
        }
      }
    }
  }
  JOINT HipLeft
  {
    OFFSET -5.200469 -0.006593 -0.665589
    CHANNELS 3 Zrotation Xrotation Yrotation
    JOINT KneeLeft
    {
      OFFSET -3.176352 -33.649499 0.487470
      CHANNELS 3 Zrotation Xrotation Yrotation
      JOINT AnkleLeft
      {
        OFFSET 12.933598 -27.901398 1.155140
        CHANNELS 3 Zrotation Xrotation Yrotation
        JOINT FootLeft
        {
          OFFSET 7.280207 -3.000917 -6.486948
          CHANNELS 3 Zrotation Xrotation Yrotation
          End Site
          {
            OFFSET 0 0 0
          }
        }
      }
    }
  }
  JOINT HipRight
  {
    OFFSET 4.807464 0.786862 -5.758618
    CHANNELS 3 Zrotation Xrotation Yrotation
    JOINT KneeRight
    {
      OFFSET 0.782006 -34.555689 -6.444928
      CHANNELS 3 Zrotation Xrotation Yrotation
      JOINT AnkleRight
      {
        OFFSET 8.726157 -29.565469 6.311321
        CHANNELS 3 Zrotation Xrotation Yrotation
        JOINT FootRight
        {
          OFFSET -4.255936 -3.808751 -9.913304
          CHANNELS 3 Zrotation Xrotation Yrotation
          End Site
          {
            OFFSET 0 0 0
          }
        }
      }
    }
  }
}
MOTION
Frames: 9
Frame Time: 0.033333
15.688579 70.028107 336.914061 0.000000 0.000000 26.971505 -0.000000 0.000000 -26.971505 -0.000000 0.000000 0.000000 -0.000000 0.000000 0.000000 0.000000 0.000000 0.000000 -0.000000 0.000000 0.000000 -0.000000 0.000000 0.000000 -0.000000 0.000000 0.000000 -0.000000 0.000000 0.000000 0.000000 0.000000 0.000000 0.000000 0.000000 0.000000 -0.000000 0.000000 0.000000 -0.000000 0.000000 0.000000 -0.000000 0.000000 0.000000 -0.000000 0.000000 0.000000 0.000000 0.000000 0.000000 0.000000 0.000000 0.000000 -0.000000 0.000000 -26.971505 -0.000000 0.000000 0.000000 -0.000000 0.000000 0.000000 0.000000 0.000000 0.000000 -0.000000 0.000000 -26.971505 -0.000000 0.000000 0.000000 -0.000000 0.000000 0.000000 0.000000 0.000000 0.000000
15.685571 70.062823 336.831397 0.013989 0.146344 26.894218 -0.078674 -0.124188 -26.894322 -0.000000 0.000000 0.000000 -0.000000 0.000000 0.000000 0.000000 0.000000 0.000000 0.724250 -0.366132 -0.519117 -1.544465 0.163874 0.983387 -0.122526 1.771350 0.253177 -0.204955 -0.719668 -0.036316 0.000000 0.000000 0.000000 0.000000 0.000000 0.000000 0.554352 -0.752575 -0.257256 -0.557773 0.750043 0.264547 -0.834337 -0.809055 1.738910 1.894275 4.037996 -5.990962 0.000000 0.000000 0.000000 0.000000 0.000000 0.000000 -0.888215 -0.716403 -26.822450 0.455290 0.893735 -0.081361 -0.472819 -1.902949 -3.774738 0.000000 0.000000 0.000000 -0.078674 -0.124188 -26.894322 -0.895178 0.493493 -0.041722 1.483035 -2.106064 0.353850 0.000000 0.000000 0.000000
15.674857 70.104765 336.753373 0.012283 0.290865 26.871294 -0.142426 -0.253907 -26.871641 -0.000000 0.000000 0.000000 -0.000000 0.000000 0.000000 0.000000 0.000000 0.000000 1.277867 -0.444649 -0.901697 -2.823148 -0.036943 1.746844 -0.288369 3.381875 0.539590 -0.351747 -1.598427 -0.225128 0.000000 0.000000 0.000000 0.000000 0.000000 0.000000 1.040654 -1.335248 -0.445439 -0.407780 1.226160 -0.072526 -2.262076 -1.535825 3.959227 4.125185 7.473717 -11.555250 0.000000 0.000000 0.000000 0.000000 0.000000 0.000000 -1.559879 -1.186704 -26.762744 0.845928 1.470880 -0.137577 -1.194502 -3.222743 -5.763623 0.000000 0.000000 0.000000 -0.142426 -0.253907 -26.871641 -1.668470 1.059959 -0.028081 2.782463 -4.090152 0.658791 0.000000 0.000000 0.000000
15.656439 70.153934 336.679989 -0.005166 0.433626 26.903115 -0.191605 -0.389032 -26.903746 -0.000000 0.000000 0.000000 -0.000000 0.000000 0.000000 0.000000 0.000000 0.000000 1.665073 -0.232884 -1.153061 -3.834575 -0.587891 2.274813 -0.486731 4.798291 0.839339 -0.494501 -2.542592 -0.515085 0.000000 0.000000 0.000000 0.000000 0.000000 0.000000 1.460134 -1.745846 -0.567397 -0.754944 1.647189 -0.052234 -3.068750 -2.345261 5.653993 6.525974 10.288475 -16.633000 0.000000 0.000000 0.000000 0.000000 0.000000 0.000000 -2.024480 -1.413430 -26.785160 1.098523 2.611475 0.238556 -2.061276 -4.979396 -6.734630 0.000000 0.000000 0.000000 -0.191605 -0.389032 -26.903746 -2.317758 1.695095 0.040160 3.873083 -5.906777 0.899851 0.000000 0.000000 0.000000
15.630317 70.210330 336.611244 -0.038423 0.574687 26.990200 -0.226583 -0.529531 -26.991055 -0.000000 0.000000 0.000000 -0.000000 0.000000 0.000000 0.000000 0.000000 0.000000 1.887834 0.271205 -1.275799 -4.580944 -1.477852 2.557666 -0.705932 5.992869 1.133219 -0.677079 -3.487882 -0.870473 0.000000 0.000000 0.000000 0.000000 0.000000 0.000000 1.813604 -1.982884 -0.625530 -1.195130 1.939551 0.007794 -3.632787 -3.124728 7.072298 8.935980 12.507223 -21.154405 0.000000 0.000000 0.000000 0.000000 0.000000 0.000000 -2.286099 -1.395977 -26.885588 0.993652 3.088277 0.481404 -2.820532 -6.066072 -6.210284 0.000000 0.000000 0.000000 -0.226583 -0.529531 -26.991055 -2.842396 2.394379 0.161220 4.732792 -7.515278 1.060761 0.000000 0.000000 0.000000
15.596489 70.273953 336.547139 -0.087569 0.714108 27.133207 -0.247754 -0.675455 -27.134122 -0.000000 0.000000 0.000000 -0.000000 0.000000 0.000000 0.000000 0.000000 0.000000 1.945716 1.069108 -1.269652 -5.067802 -2.699451 2.591029 -0.934149 6.944138 1.403654 -0.936144 -4.393642 -1.267654 0.000000 0.000000 0.000000 0.000000 0.000000 0.000000 2.101423 -2.045395 -0.621749 -2.124812 2.021086 0.696751 -3.576188 -3.712527 7.579178 11.209639 14.183887 -25.046774 0.000000 0.000000 0.000000 0.000000 0.000000 0.000000 -2.343406 -1.130317 -27.062839 0.653634 3.365221 0.809823 -3.656385 -7.021356 -4.387727 0.000000 0.000000 0.000000 -0.247754 -0.675455 -27.134122 -3.243084 3.153125 0.332399 5.344154 -8.881965 1.125476 0.000000 0.000000 0.000000
15.559667 70.316796 336.603484 -0.126831 0.616857 27.243105 -0.169618 -0.606488 -27.243320 -0.000000 0.000000 0.000000 -0.723496 -0.583614 -0.218066 0.000000 0.000000 0.000000 1.574064 1.911273 -0.964471 -5.528895 -4.132791 2.469075 -1.518506 9.233214 2.159888 0.048904 -6.004506 -2.024541 0.000000 0.000000 0.000000 0.000000 0.000000 0.000000 2.439478 -1.983370 -0.565550 -2.460369 1.957389 0.649820 -5.483528 -4.448216 9.629205 15.682198 15.896041 -30.956731 0.000000 0.000000 0.000000 0.000000 0.000000 0.000000 -2.327016 -0.286755 -27.223684 0.388052 3.247949 1.127856 -4.341222 -5.975654 3.585453 0.000000 0.000000 0.000000 -0.021925 1.103014 -27.086945 -3.009675 2.269429 0.233101 6.080724 -10.417193 1.277505 0.000000 0.000000 0.000000
15.026450 70.363971 336.664853 -0.947053 0.559691 27.679172 0.578775 -0.935513 -27.669822 -0.000000 0.000000 0.000000 -0.680720 -0.830195 -0.264405 0.000000 0.000000 0.000000 1.207377 3.158105 -0.636301 -5.322087 -5.758473 1.937630 -1.692036 9.199770 2.207265 -0.932346 -6.747249 -2.479886 0.000000 0.000000 0.000000 0.000000 0.000000 0.000000 2.786119 -1.928597 -0.511746 -4.123248 2.858517 0.412583 -7.925993 -6.058863 12.370143 22.960687 15.369461 -36.933012 0.000000 0.000000 0.000000 0.000000 0.000000 0.000000 0.528735 0.149822 -27.766619 -2.742840 2.209972 1.483118 -4.094781 -7.383988 4.501910 0.000000 0.000000 0.000000 1.159548 1.549704 -27.498356 -3.202256 2.126722 0.369955 6.336501 -11.485480 1.297426 0.000000 0.000000 0.000000
15.076047 70.507574 336.428690 -0.873816 1.056821 28.054968 0.274230 -1.343559 -28.043694 -0.447715 0.721536 -0.022592 -0.068976 -1.957661 -0.305348 0.000000 0.000000 0.000000 1.310106 4.311548 -0.245762 -4.656283 -7.987470 1.054881 -1.619709 8.153606 1.989334 -2.824524 -6.219684 -2.232580 0.000000 0.000000 0.000000 0.000000 0.000000 0.000000 3.439732 -2.190048 -0.255457 -5.001261 2.591258 0.643481 -5.025755 -5.650693 10.181623 20.719626 15.890575 -35.409122 0.000000 0.000000 0.000000 0.000000 0.000000 0.000000 0.513255 0.914946 -28.253831 -2.836120 2.685235 2.355779 -7.862868 -10.147213 11.603402 0.000000 0.000000 0.000000 -0.049483 2.029337 -27.630414 -2.030454 2.912081 0.508178 5.416004 -10.941209 1.372497 0.000000 0.000000 0.000000
